<svg width="200" height="200" viewBox="0 0 200 200" fill="none" xmlns="http://www.w3.org/2000/svg">
<path d="M95 96C95.5523 96 96 95.5523 96 95V56H104V95C104 95.5523 104.448 96 105 96H144V104H105C104.448 104 104 104.448 104 105V144H96V105C96 104.448 95.5523 104 95 104H56V96H95ZM95 54C94.4477 54 94 54.4477 94 55V94H55C54.4477 94 54 94.4477 54 95V105C54 105.552 54.4477 106 55 106H94V145C94 145.552 94.4477 146 95 146H105C105.552 146 106 145.552 106 145V106H145C145.552 106 146 105.552 146 105V95C146 94.4477 145.552 94 145 94H106V55C106 54.4477 105.552 54 105 54H95Z" stroke="black" stroke-width="2" stroke-linejoin="round"/>
</svg>
